# xmcd
#
# Track frame offsets: 
#        150
#        51090
#        71463
#        97341
#        126950
#        157914
#        189925
#
# Disc length: 2977 seconds
#
# Revision: 0
# Processed by: cddbd v1.5.2PL0 Copyright (c) Steve Scherf et al.
# Submitted via: ExactAudioCopy v1.3
#
DISCID=5a0b9f07
DTITLE=Ralph De Jongh - Breath Of Live [disk 2]
DYEAR=2017
DGENRE=Blues Rock, Folk
TTITLE0=Feel Me
TTITLE1=Girl
TTITLE2=Let The Tears Surface
TTITLE3=Keeper Of The Key
TTITLE4=Misty Train
TTITLE5=Love Is Not A Friend
TTITLE6=Man
EXTD=
EXTT0=
EXTT1=
EXTT2=
EXTT3=
EXTT4=
EXTT5=
EXTT6=
PLAYORDER=
